<?xml version="1.0" standalone="no"?>
<!DOCTYPE svg PUBLIC "-//W3C//DTD SVG 20010904//EN"
 "http://www.w3.org/TR/2001/REC-SVG-20010904/DTD/svg10.dtd">
<svg version="1.0" xmlns="http://www.w3.org/2000/svg"
 width="266.000000pt" height="266.000000pt" viewBox="0 0 266.000000 266.000000"
 preserveAspectRatio="xMidYMid meet">
<metadata>
Created by potrace 1.11, written by Peter Selinger 2001-2013
</metadata>
<g transform="translate(0.000000,266.000000) scale(0.100000,-0.100000)"
fill="#000000" stroke="none">
<path d="M506 2649 c-20 -3 -39 -9 -43 -13 -4 -4 -6 -122 -5 -264 2 -228 4
-258 19 -269 9 -7 20 -13 23 -13 20 0 40 31 45 70 12 87 29 124 80 177 86 88
77 86 674 91 283 2 525 1 538 -3 13 -3 23 -10 23 -15 0 -6 -76 -117 -168 -248
-206 -290 -183 -257 -497 -702 -142 -201 -322 -455 -400 -565 -78 -110 -159
-225 -180 -255 -21 -30 -41 -57 -45 -60 -18 -14 -17 -51 2 -64 36 -26 -49
-128 757 904 256 327 530 678 609 780 79 102 158 203 176 224 127 157 139 180
117 215 -7 11 -151 14 -848 15 -462 0 -857 -2 -877 -5z"/>
<path d="M2001 2101 c-21 -25 -330 -419 -686 -876 -356 -456 -668 -855 -692
-885 -209 -263 -230 -299 -201 -328 9 -9 218 -12 879 -12 765 0 868 2 879 15
10 12 13 78 12 266 -1 259 -4 279 -42 279 -26 0 -38 -20 -45 -75 -13 -99 -63
-178 -135 -215 -81 -41 -106 -43 -635 -45 -280 0 -518 1 -527 3 -10 2 -18 9
-18 14 0 8 116 181 143 213 6 8 216 304 287 405 6 8 189 267 407 575 218 308
413 584 434 614 28 41 35 59 30 75 -14 36 -48 28 -90 -23z"/>
<path d="M604 1393 c-21 -32 -40 -61 -42 -64 -1 -3 90 -6 204 -5 l207 1 43 63
44 62 -209 0 -208 0 -39 -57z"/>
<path d="M1729 1412 c-14 -20 -34 -49 -43 -63 l-17 -27 208 2 207 1 44 63 43
62 -208 0 -208 0 -26 -38z"/>
</g>
</svg>
